# xmcd CD database file
#
# Track frame offsets:
#	150
#	16412
#	31455
#	45644
#	61174
#	80159
#	93648
#	113978
#	132214
#	147654
#
# Disc length: 2213 seconds
#
# Revision: 0
# Processed by: cddbd v1.5.2PL0 Copyright (c) Steve Scherf et al.
# Submitted via: CDex 1.51
#
DISCID=8d08a30a
DTITLE=Charlie Blue - Sail On
DYEAR=2010
DGENRE=Blues
TTITLE0=Sail On
TTITLE1=Ticket Agent (Blind Willie McTell)
TTITLE2=Cry No More
TTITLE3=You The One (Jimmy Rogers)
TTITLE4=The Way It Is
TTITLE5=Roll and Tumble (Hambone Willie Newbern)
TTITLE6=Twisted
TTITLE7=Too Late (Memphis Minnie)
TTITLE8=Mojo Working (Muddy Waters)
TTITLE9=War
EXTD=YEAR: 2010
EXTT0=
EXTT1=
EXTT2=
EXTT3=
EXTT4=
EXTT5=
EXTT6=
EXTT7=
EXTT8=
EXTT9=
PLAYORDER=
